<?xml version="1.0" encoding="UTF-8" standalone="no"?>
<!-- Created with Inkscape (http://www.inkscape.org/) -->

<svg
   xmlns:dc="http://purl.org/dc/elements/1.1/"
   xmlns:cc="http://creativecommons.org/ns#"
   xmlns:rdf="http://www.w3.org/1999/02/22-rdf-syntax-ns#"
   xmlns:svg="http://www.w3.org/2000/svg"
   xmlns="http://www.w3.org/2000/svg"
   xmlns:sodipodi="http://sodipodi.sourceforge.net/DTD/sodipodi-0.dtd"
   xmlns:inkscape="http://www.inkscape.org/namespaces/inkscape"
   width="864"
   height="864"
   id="svg4242"
   version="1.1"
   inkscape:version="0.48.4 r9939"
   sodipodi:docname="clock.svg">
  <defs
     id="defs4244" />
  <sodipodi:namedview
     id="base"
     pagecolor="#ffffff"
     bordercolor="#666666"
     borderopacity="1.0"
     inkscape:pageopacity="0.0"
     inkscape:pageshadow="2"
     inkscape:zoom="0.7"
     inkscape:cx="588.89002"
     inkscape:cy="335.78981"
     inkscape:document-units="px"
     inkscape:current-layer="layer1"
     showgrid="false"
     inkscape:window-width="1920"
     inkscape:window-height="1035"
     inkscape:window-x="0"
     inkscape:window-y="45"
     inkscape:window-maximized="0"
     showguides="true"
     inkscape:guide-bbox="true" />
  <metadata
     id="metadata4247">
    <rdf:RDF>
      <cc:Work
         rdf:about="">
        <dc:format>image/svg+xml</dc:format>
        <dc:type
           rdf:resource="http://purl.org/dc/dcmitype/StillImage" />
        <dc:title></dc:title>
      </cc:Work>
    </rdf:RDF>
  </metadata>
  <g
     inkscape:label="Layer 1"
     inkscape:groupmode="layer"
     id="layer1"
     transform="translate(0,-188.36218)">
    <g
       id="g5305">
      <path
         transform="translate(-17.142857,148.36218)"
         d="m 842.85715,452.57144 a 382.85715,368.57144 0 1 1 -765.714297,0 382.85715,368.57144 0 1 1 765.714297,0 z"
         sodipodi:ry="368.57144"
         sodipodi:rx="382.85715"
         sodipodi:cy="452.57144"
         sodipodi:cx="460"
         id="path4269"
         style="opacity:0.64750959;fill:#fff2aa;fill-opacity:1;stroke:#000000;stroke-width:17;stroke-linecap:butt;stroke-linejoin:miter;stroke-miterlimit:4;stroke-opacity:1;stroke-dasharray:none;stroke-dashoffset:0"
         sodipodi:type="arc" />
      <path
         sodipodi:nodetypes="ccccc"
         inkscape:connector-curvature="0"
         id="path5102"
         d="M 444.28425,602.33826 414.30963,363.35495 444.28425,316.67181 478.5475,363.637 z"
         style="fill:#000000;fill-opacity:1;stroke:#000000;stroke-width:1.04783881px;stroke-linecap:butt;stroke-linejoin:miter;stroke-opacity:1" />
      <path
         sodipodi:nodetypes="ccccc"
         inkscape:connector-curvature="0"
         id="path5102-9"
         d="m 445.06138,604.97305 185.35874,33.61299 27.30491,30.75256 -43.477,12.54697 z"
         style="fill:#000000;fill-opacity:1;stroke:#000000;stroke-width:0.78309315px;stroke-linecap:butt;stroke-linejoin:miter;stroke-opacity:1" />
      <path
         transform="translate(415.71428,266.93361)"
         d="m -257.14287,164 a 6.4285712,7.1428571 0 1 1 -12.85714,0 6.4285712,7.1428571 0 1 1 12.85714,0 z"
         sodipodi:ry="7.1428571"
         sodipodi:rx="6.4285712"
         sodipodi:cy="164"
         sodipodi:cx="-263.57144"
         id="path5122"
         style="opacity:0.64750959;fill:#fff2aa;fill-opacity:1;stroke:#000000;stroke-width:17;stroke-linecap:butt;stroke-linejoin:miter;stroke-miterlimit:4;stroke-opacity:1;stroke-dasharray:none;stroke-dashoffset:0"
         sodipodi:type="arc" />
      <path
         d="m -257.14287,164 a 6.4285712,7.1428571 0 1 1 -12.85714,0 6.4285712,7.1428571 0 1 1 12.85714,0 z"
         sodipodi:ry="7.1428571"
         sodipodi:rx="6.4285712"
         sodipodi:cy="164"
         sodipodi:cx="-263.57144"
         id="path5122-6"
         style="opacity:0.64750959;fill:#fff2aa;fill-opacity:1;stroke:#000000;stroke-width:17;stroke-linecap:butt;stroke-linejoin:miter;stroke-miterlimit:4;stroke-opacity:1;stroke-dasharray:none;stroke-dashoffset:0"
         sodipodi:type="arc"
         transform="translate(540.7143,145.50503)" />
      <path
         d="m -257.14287,164 a 6.4285712,7.1428571 0 1 1 -12.85714,0 6.4285712,7.1428571 0 1 1 12.85714,0 z"
         sodipodi:ry="7.1428571"
         sodipodi:rx="6.4285712"
         sodipodi:cy="164"
         sodipodi:cx="-263.57144"
         id="path5122-3"
         style="opacity:0.64750959;fill:#fff2aa;fill-opacity:1;stroke:#000000;stroke-width:17;stroke-linecap:butt;stroke-linejoin:miter;stroke-miterlimit:4;stroke-opacity:1;stroke-dasharray:none;stroke-dashoffset:0"
         sodipodi:type="arc"
         transform="translate(365.00001,439.79075)" />
      <path
         d="m -257.14287,164 a 6.4285712,7.1428571 0 1 1 -12.85714,0 6.4285712,7.1428571 0 1 1 12.85714,0 z"
         sodipodi:ry="7.1428571"
         sodipodi:rx="6.4285712"
         sodipodi:cy="164"
         sodipodi:cx="-263.57144"
         id="path5122-67"
         style="opacity:0.64750959;fill:#fff2aa;fill-opacity:1;stroke:#000000;stroke-width:17;stroke-linecap:butt;stroke-linejoin:miter;stroke-miterlimit:4;stroke-opacity:1;stroke-dasharray:none;stroke-dashoffset:0"
         sodipodi:type="arc"
         transform="translate(707.85715,102.6479)" />
      <path
         d="m -257.14287,164 a 6.4285712,7.1428571 0 1 1 -12.85714,0 6.4285712,7.1428571 0 1 1 12.85714,0 z"
         sodipodi:ry="7.1428571"
         sodipodi:rx="6.4285712"
         sodipodi:cy="164"
         sodipodi:cx="-263.57144"
         id="path5122-9"
         style="opacity:0.64750959;fill:#fff2aa;fill-opacity:1;stroke:#000000;stroke-width:17;stroke-linecap:butt;stroke-linejoin:miter;stroke-miterlimit:4;stroke-opacity:1;stroke-dasharray:none;stroke-dashoffset:0"
         sodipodi:type="arc"
         transform="translate(707.85715,768.36218)" />
      <path
         d="m -257.14287,164 a 6.4285712,7.1428571 0 1 1 -12.85714,0 6.4285712,7.1428571 0 1 1 12.85714,0 z"
         sodipodi:ry="7.1428571"
         sodipodi:rx="6.4285712"
         sodipodi:cy="164"
         sodipodi:cx="-263.57144"
         id="path5122-7"
         style="opacity:0.64750959;fill:#fff2aa;fill-opacity:1;stroke:#000000;stroke-width:17;stroke-linecap:butt;stroke-linejoin:miter;stroke-miterlimit:4;stroke-opacity:1;stroke-dasharray:none;stroke-dashoffset:0"
         sodipodi:type="arc"
         transform="translate(1043.5714,439.79075)" />
      <path
         d="m -257.14287,164 a 6.4285712,7.1428571 0 1 1 -12.85714,0 6.4285712,7.1428571 0 1 1 12.85714,0 z"
         sodipodi:ry="7.1428571"
         sodipodi:rx="6.4285712"
         sodipodi:cy="164"
         sodipodi:cx="-263.57144"
         id="path5122-4"
         style="opacity:0.64750959;fill:#fff2aa;fill-opacity:1;stroke:#000000;stroke-width:17;stroke-linecap:butt;stroke-linejoin:miter;stroke-miterlimit:4;stroke-opacity:1;stroke-dasharray:none;stroke-dashoffset:0"
         sodipodi:type="arc"
         transform="translate(415.00001,604.07647)" />
      <path
         d="m -257.14287,164 a 6.4285712,7.1428571 0 1 1 -12.85714,0 6.4285712,7.1428571 0 1 1 12.85714,0 z"
         sodipodi:ry="7.1428571"
         sodipodi:rx="6.4285712"
         sodipodi:cy="164"
         sodipodi:cx="-263.57144"
         id="path5122-78"
         style="opacity:0.64750959;fill:#fff2aa;fill-opacity:1;stroke:#000000;stroke-width:17;stroke-linecap:butt;stroke-linejoin:miter;stroke-miterlimit:4;stroke-opacity:1;stroke-dasharray:none;stroke-dashoffset:0"
         sodipodi:type="arc"
         transform="translate(875.00001,144.07647)" />
      <path
         d="m -257.14287,164 a 6.4285712,7.1428571 0 1 1 -12.85714,0 6.4285712,7.1428571 0 1 1 12.85714,0 z"
         sodipodi:ry="7.1428571"
         sodipodi:rx="6.4285712"
         sodipodi:cy="164"
         sodipodi:cx="-263.57144"
         id="path5122-76"
         style="opacity:0.64750959;fill:#fff2aa;fill-opacity:1;stroke:#000000;stroke-width:17;stroke-linecap:butt;stroke-linejoin:miter;stroke-miterlimit:4;stroke-opacity:1;stroke-dasharray:none;stroke-dashoffset:0"
         sodipodi:type="arc"
         transform="translate(870.7143,719.79075)" />
      <path
         d="m -257.14287,164 a 6.4285712,7.1428571 0 1 1 -12.85714,0 6.4285712,7.1428571 0 1 1 12.85714,0 z"
         sodipodi:ry="7.1428571"
         sodipodi:rx="6.4285712"
         sodipodi:cy="164"
         sodipodi:cx="-263.57144"
         id="path5122-8"
         style="opacity:0.64750959;fill:#fff2aa;fill-opacity:1;stroke:#000000;stroke-width:17;stroke-linecap:butt;stroke-linejoin:miter;stroke-miterlimit:4;stroke-opacity:1;stroke-dasharray:none;stroke-dashoffset:0"
         sodipodi:type="arc"
         transform="translate(1000.7143,266.93361)" />
      <path
         d="m -257.14287,164 a 6.4285712,7.1428571 0 1 1 -12.85714,0 6.4285712,7.1428571 0 1 1 12.85714,0 z"
         sodipodi:ry="7.1428571"
         sodipodi:rx="6.4285712"
         sodipodi:cy="164"
         sodipodi:cx="-263.57144"
         id="path5122-2"
         style="opacity:0.64750959;fill:#fff2aa;fill-opacity:1;stroke:#000000;stroke-width:17;stroke-linecap:butt;stroke-linejoin:miter;stroke-miterlimit:4;stroke-opacity:1;stroke-dasharray:none;stroke-dashoffset:0"
         sodipodi:type="arc"
         transform="translate(536.42858,724.07647)" />
      <path
         d="m -257.14287,164 a 6.4285712,7.1428571 0 1 1 -12.85714,0 6.4285712,7.1428571 0 1 1 12.85714,0 z"
         sodipodi:ry="7.1428571"
         sodipodi:rx="6.4285712"
         sodipodi:cy="164"
         sodipodi:cx="-263.57144"
         id="path5122-74"
         style="opacity:0.64750959;fill:#fff2aa;fill-opacity:1;stroke:#000000;stroke-width:17;stroke-linecap:butt;stroke-linejoin:miter;stroke-miterlimit:4;stroke-opacity:1;stroke-dasharray:none;stroke-dashoffset:0"
         sodipodi:type="arc"
         transform="translate(995.00001,601.21933)" />
    </g>
  </g>
</svg>
